<svg width="40" height="40" viewBox="0 0 40 40" fill="none" xmlns="http://www.w3.org/2000/svg">
<g opacity="0.5">
<rect x="40" y="40" width="40" height="40" rx="16" transform="rotate(-180 40 40)" fill="#EAE6FE"/>
<path d="M22.5303 15.5303C22.8232 15.2374 22.8232 14.7626 22.5303 14.4697C22.2374 14.1768 21.7626 14.1768 21.4697 14.4697L22.5303 15.5303ZM17 20L16.4697 19.4697C16.329 19.6103 16.25 19.8011 16.25 20C16.25 20.1989 16.329 20.3897 16.4697 20.5303L17 20ZM21.4697 25.5303C21.7626 25.8232 22.2374 25.8232 22.5303 25.5303C22.8232 25.2374 22.8232 24.7626 22.5303 24.4697L21.4697 25.5303ZM21.4697 14.4697L16.4697 19.4697L17.5303 20.5303L22.5303 15.5303L21.4697 14.4697ZM16.4697 20.5303L21.4697 25.5303L22.5303 24.4697L17.5303 19.4697L16.4697 20.5303Z" fill="#7E74F1"/>
</g>
</svg>
